<svg width="21" height="21" viewBox="0 0 21 21" fill="none" xmlns="http://www.w3.org/2000/svg">
<path fill-rule="evenodd" clip-rule="evenodd" d="M10.5 0.0833435C4.75 0.0833435 0.0833282 4.75001 0.0833282 10.5C0.0833282 16.25 4.75 20.9167 10.5 20.9167C16.25 20.9167 20.9167 16.25 20.9167 10.5C20.9167 4.75001 16.25 0.0833435 10.5 0.0833435ZM9.45833 5.29168V9.45834H5.29166V11.5417H9.45833V15.7083H11.5417V11.5417H15.7083V9.45834H11.5417V5.29168H9.45833ZM2.16666 10.5C2.16666 15.0938 5.90624 18.8333 10.5 18.8333C15.0937 18.8333 18.8333 15.0938 18.8333 10.5C18.8333 5.90626 15.0937 2.16668 10.5 2.16668C5.90624 2.16668 2.16666 5.90626 2.16666 10.5Z" fill="#54D1ED"/>
<path fill-rule="evenodd" clip-rule="evenodd" d="M10.5 0.0833435C4.75 0.0833435 0.0833282 4.75001 0.0833282 10.5C0.0833282 16.25 4.75 20.9167 10.5 20.9167C16.25 20.9167 20.9167 16.25 20.9167 10.5C20.9167 4.75001 16.25 0.0833435 10.5 0.0833435ZM9.45833 5.29168V9.45834H5.29166V11.5417H9.45833V15.7083H11.5417V11.5417H15.7083V9.45834H11.5417V5.29168H9.45833ZM2.16666 10.5C2.16666 15.0938 5.90624 18.8333 10.5 18.8333C15.0937 18.8333 18.8333 15.0938 18.8333 10.5C18.8333 5.90626 15.0937 2.16668 10.5 2.16668C5.90624 2.16668 2.16666 5.90626 2.16666 10.5Z" fill="url(#paint0_linear)" fill-opacity="0.4" style="mix-blend-mode:multiply"/>
<defs>
<linearGradient id="paint0_linear" x1="10.5" y1="0.0833435" x2="10.5" y2="20.9167" gradientUnits="userSpaceOnUse">
<stop stop-color="#2C52D8" stop-opacity="0"/>
<stop offset="1" stop-color="#2C52D8"/>
</linearGradient>
</defs>
</svg>
