<svg width="25" height="12" viewBox="0 0 25 12" fill="none" xmlns="http://www.w3.org/2000/svg">
<path opacity="0.35" d="M0.5 2.99998C0.5 1.80336 1.47005 0.833313 2.66667 0.833313H19.3333C20.53 0.833313 21.5 1.80336 21.5 2.99998V8.99998C21.5 10.1966 20.53 11.1666 19.3333 11.1666H2.66667C1.47005 11.1666 0.5 10.1966 0.5 8.99998V2.99998Z" stroke="#26232C"/>
<path opacity="0.4" d="M23 4V8C23.8047 7.66122 24.328 6.87313 24.328 6C24.328 5.12687 23.8047 4.33878 23 4Z" fill="#26232C"/>
<path d="M2 3.66665C2 2.93027 2.59695 2.33331 3.33333 2.33331H18.6667C19.403 2.33331 20 2.93027 20 3.66665V8.33331C20 9.06969 19.403 9.66665 18.6667 9.66665H3.33333C2.59695 9.66665 2 9.06969 2 8.33331V3.66665Z" fill="#26232C"/>
</svg>
