<svg width="120" height="122" viewBox="0 0 120 122" fill="none" xmlns="http://www.w3.org/2000/svg">
<path d="M60 0C75.2267 1.81577e-07 89.8839 5.78923 101.001 16.1943L92.1214 25.6812C83.412 17.5295 71.9291 12.994 60 12.994V0Z" fill="#41CF69"/>
<g opacity="0.4">
<path opacity="0.9" d="M100.511 17.7406C111.41 27.7169 118.245 41.3644 119.706 56.068L110.75 56.9578C109.508 44.4598 103.699 32.8594 94.4339 24.3795L100.511 17.7406Z" fill="#58506B"/>
<path opacity="0.8" d="M119.776 56.8167C121.052 71.5374 116.852 86.2115 107.98 98.0273L100.783 92.6232C108.324 82.5798 111.894 70.1068 110.809 57.5942L119.776 56.8167Z" fill="#58506B"/>
<path opacity="0.7" d="M107.579 98.5551C101.106 106.979 92.5134 113.534 82.678 117.549L79.2763 109.217C87.6364 105.804 94.9403 100.232 100.442 93.0719L107.579 98.5551Z" fill="#58506B"/>
<path opacity="0.6" d="M82.1462 117.763C72.9063 121.433 62.8993 122.749 53.0248 121.593C43.1502 120.437 33.7177 116.846 25.5749 111.142L30.7387 103.771C37.66 108.619 45.6777 111.672 54.0711 112.654C62.4644 113.637 70.9703 112.518 78.8243 109.399L82.1462 117.763Z" fill="#58506B"/>
<path opacity="0.5" d="M25.2684 110.926C18.6154 106.203 12.9955 100.173 8.75232 93.2038L16.4395 88.5232C20.0462 94.4467 24.8231 99.5723 30.4781 103.587L25.2684 110.926Z" fill="#58506B"/>
<path opacity="0.4" d="M8.50433 92.7928C4.4403 85.9964 1.76183 78.4628 0.623338 70.6262L9.52984 69.3323C10.4976 75.9933 12.7743 82.3969 16.2287 88.1739L8.50433 92.7928Z" fill="#58506B"/>
<path opacity="0.3" d="M0.553473 70.1308C-0.557145 62.0108 0.00753972 53.7494 2.2127 45.856L10.8808 48.2776C9.00641 54.987 8.52643 62.0092 9.47045 68.9112L0.553473 70.1308Z" fill="#58506B"/>
<path opacity="0.2" d="M2.37616 45.282C5.68294 33.8841 12.2956 23.7229 21.3777 16.0836L27.1711 22.971C19.4512 29.4645 13.8305 38.1015 11.0197 47.7897L2.37616 45.282Z" fill="#58506B"/>
<path opacity="0.1" d="M21.9669 15.5943C32.494 6.96659 45.6417 2.17445 59.2515 2.00467L59.3638 11.004C47.7954 11.1483 36.6199 15.2216 27.6719 22.5552L21.9669 15.5943Z" fill="#58506B"/>
</g>
</svg>
