<svg width="25" height="24" viewBox="0 0 25 24" fill="none" xmlns="http://www.w3.org/2000/svg">
<path fill-rule="evenodd" clip-rule="evenodd" d="M3.25 6C3.25 5.17 3.92 4.5 4.75 4.5C5.58 4.5 6.25 5.17 6.25 6C6.25 6.83 5.58 7.5 4.75 7.5C3.92 7.5 3.25 6.83 3.25 6ZM3.25 12C3.25 11.17 3.92 10.5 4.75 10.5C5.58 10.5 6.25 11.17 6.25 12C6.25 12.83 5.58 13.5 4.75 13.5C3.92 13.5 3.25 12.83 3.25 12ZM4.75 16.5C3.92 16.5 3.25 17.18 3.25 18C3.25 18.82 3.93 19.5 4.75 19.5C5.57 19.5 6.25 18.82 6.25 18C6.25 17.18 5.58 16.5 4.75 16.5ZM21.75 19H7.75V17H21.75V19ZM7.75 13H21.75V11H7.75V13ZM7.75 7V5H21.75V7H7.75Z" fill="#A99DC6"/>
</svg>
