<svg width="25" height="24" viewBox="0 0 25 24" fill="none" xmlns="http://www.w3.org/2000/svg">
<path fill-rule="evenodd" clip-rule="evenodd" d="M12.5 2C6.98 2 2.5 6.48 2.5 12C2.5 17.52 6.98 22 12.5 22C18.02 22 22.5 17.52 22.5 12C22.5 6.48 18.02 2 12.5 2ZM7.57 18.28C8 17.38 10.62 16.5 12.5 16.5C14.38 16.5 17.01 17.38 17.43 18.28C16.07 19.36 14.36 20 12.5 20C10.64 20 8.93 19.36 7.57 18.28ZM12.5 14.5C13.96 14.5 17.43 15.09 18.86 16.83C19.88 15.49 20.5 13.82 20.5 12C20.5 7.59 16.91 4 12.5 4C8.09 4 4.5 7.59 4.5 12C4.5 13.82 5.12 15.49 6.14 16.83C7.57 15.09 11.04 14.5 12.5 14.5ZM12.5 6C10.56 6 9 7.56 9 9.5C9 11.44 10.56 13 12.5 13C14.44 13 16 11.44 16 9.5C16 7.56 14.44 6 12.5 6ZM11 9.5C11 10.33 11.67 11 12.5 11C13.33 11 14 10.33 14 9.5C14 8.67 13.33 8 12.5 8C11.67 8 11 8.67 11 9.5Z" fill="#A99DC6"/>
</svg>
