<svg width="25" height="24" viewBox="0 0 25 24" fill="none" xmlns="http://www.w3.org/2000/svg">
<path fill-rule="evenodd" clip-rule="evenodd" d="M5.5 12.5H2.5L12.5 3.5L22.5 12.5H19.5V20.5H13.5V14.5H11.5V20.5H5.5V12.5ZM17.5 10.69L12.5 6.19L7.5 10.69V18.5H9.5V12.5H15.5V18.5H17.5V10.69Z" fill="#54D1ED"/>
<path fill-rule="evenodd" clip-rule="evenodd" d="M5.5 12.5H2.5L12.5 3.5L22.5 12.5H19.5V20.5H13.5V14.5H11.5V20.5H5.5V12.5ZM17.5 10.69L12.5 6.19L7.5 10.69V18.5H9.5V12.5H15.5V18.5H17.5V10.69Z" fill="url(#paint0_linear)" fill-opacity="0.4" style="mix-blend-mode:multiply"/>
<defs>
<linearGradient id="paint0_linear" x1="12.5" y1="3.5" x2="12.5" y2="20.5" gradientUnits="userSpaceOnUse">
<stop stop-color="#2C52D8" stop-opacity="0"/>
<stop offset="1" stop-color="#2C52D8"/>
</linearGradient>
</defs>
</svg>
