<svg width="17" height="21" viewBox="0 0 17 21" fill="none" xmlns="http://www.w3.org/2000/svg">
<path fill-rule="evenodd" clip-rule="evenodd" d="M14.75 14.4062V9.19792C14.75 6 13.0521 3.32292 10.0625 2.61458V1.90625C10.0625 1.04167 9.36459 0.34375 8.5 0.34375C7.63542 0.34375 6.9375 1.04167 6.9375 1.90625V2.61458C3.95834 3.32292 2.25 5.98958 2.25 9.19792V14.4062L0.166672 16.4896V17.5312H16.8333V16.4896L14.75 14.4062ZM8.5 20.6562C9.64584 20.6562 10.5833 19.7188 10.5833 18.5729H6.41667C6.41667 19.7188 7.35417 20.6562 8.5 20.6562ZM4.33334 15.4479H12.6667V9.19792C12.6667 6.61458 11.0938 4.51042 8.50001 4.51042C5.90626 4.51042 4.33334 6.61458 4.33334 9.19792V15.4479Z" fill="#54D1ED"/>
<path fill-rule="evenodd" clip-rule="evenodd" d="M14.75 14.4062V9.19792C14.75 6 13.0521 3.32292 10.0625 2.61458V1.90625C10.0625 1.04167 9.36459 0.34375 8.5 0.34375C7.63542 0.34375 6.9375 1.04167 6.9375 1.90625V2.61458C3.95834 3.32292 2.25 5.98958 2.25 9.19792V14.4062L0.166672 16.4896V17.5312H16.8333V16.4896L14.75 14.4062ZM8.5 20.6562C9.64584 20.6562 10.5833 19.7188 10.5833 18.5729H6.41667C6.41667 19.7188 7.35417 20.6562 8.5 20.6562ZM4.33334 15.4479H12.6667V9.19792C12.6667 6.61458 11.0938 4.51042 8.50001 4.51042C5.90626 4.51042 4.33334 6.61458 4.33334 9.19792V15.4479Z" fill="url(#paint0_linear)" fill-opacity="0.4" style="mix-blend-mode:multiply"/>
<defs>
<linearGradient id="paint0_linear" x1="8.5" y1="0.34375" x2="8.5" y2="20.6562" gradientUnits="userSpaceOnUse">
<stop stop-color="#2C52D8" stop-opacity="0"/>
<stop offset="1" stop-color="#2C52D8"/>
</linearGradient>
</defs>
</svg>
