<svg width="34" height="34" viewBox="0 0 34 34" fill="none" xmlns="http://www.w3.org/2000/svg">
<path fill-rule="evenodd" clip-rule="evenodd" d="M17 0.333344C7.8 0.333344 0.333334 7.80001 0.333334 17C0.333334 26.2 7.8 33.6667 17 33.6667C26.2 33.6667 33.6667 26.2 33.6667 17C33.6667 7.80001 26.2 0.333344 17 0.333344ZM13.6667 24.5L23.6667 17L13.6667 9.50001V24.5ZM3.66667 17C3.66667 24.35 9.65 30.3333 17 30.3333C24.35 30.3333 30.3333 24.35 30.3333 17C30.3333 9.65001 24.35 3.66668 17 3.66668C9.65 3.66668 3.66667 9.65001 3.66667 17Z" fill="white"/>
</svg>
